<svg xmlns="http://www.w3.org/2000/svg" xmlns:xlink="http://www.w3.org/1999/xlink" viewBox="0,0,256,256" width="128px" height="128px"><g fill="#545454" fill-rule="nonzero" stroke="none" stroke-width="1" stroke-linecap="butt" stroke-linejoin="miter" stroke-miterlimit="10" stroke-dasharray="" stroke-dashoffset="0" font-family="none" font-weight="none" font-size="none" text-anchor="none" style="mix-blend-mode: normal"><g transform="scale(8,8)"><path d="M16,3c-7.172,0 -13,5.828 -13,13c0,7.172 5.828,13 13,13c7.172,0 13,-5.828 13,-13c0,-7.172 -5.828,-13 -13,-13zM16,5.16797c2.82516,0 5.38208,1.07886 7.30664,2.83789c-0.04131,-0.00084 -0.083,-0.01172 -0.13477,-0.01172c-1.062,0 -1.75391,0.93073 -1.75391,1.92773c0,0.899 0.45286,1.64788 1.00586,2.54688c0.411,0.715 0.88867,1.64652 0.88867,2.97852c0,0.932 -0.34722,2.00376 -0.82422,3.50977l-1.07031,3.60742l-4.06641,-12.52734c0.65,-0.033 1.23438,-0.09766 1.23438,-0.09766c0.585,-0.065 0.52055,-0.93144 -0.06445,-0.89844c0,0 -1.75458,0.14063 -2.89258,0.14063c-1.061,0 -2.84961,-0.14062 -2.84961,-0.14062c-0.585,-0.033 -0.64945,0.86644 -0.06445,0.89844c0,0 0.55172,0.06466 1.13672,0.09766l1.82422,5.50781l-2.36328,7.10742l-4.09766,-12.61328c0.661,-0.033 1.24609,-0.09766 1.24609,-0.09766c0.585,-0.065 0.50955,-0.93144 -0.06445,-0.89844c0,0 -1.68178,0.13344 -2.82031,0.13867c1.98276,-2.44989 5.01195,-4.01367 8.42383,-4.01367zM25.51172,10.80078c0.84155,1.54194 1.32031,3.31191 1.32031,5.19922c0,4.28946 -2.47332,7.96928 -6.07227,9.72656c0.23349,-0.11521 0.46558,-0.23056 0.68945,-0.36719l3.30469,-9.56445c0.617,-1.538 0.82227,-2.77391 0.82227,-3.87891c0,-0.401 -0.0205,-0.75947 -0.0625,-1.10547c-0.00153,-0.00295 -0.00063,-0.00676 -0.00195,-0.00977zM6.20313,11.38477l5.0625,14.35547c-3.613,-1.7522 -6.09766,-5.44049 -6.09766,-9.74023c0,-1.65517 0.37713,-3.21493 1.03516,-4.61523zM16.18359,16.94336l3.33789,9.13086c0.02141,0.05254 0.04273,0.09677 0.07422,0.13867c-1.12576,0.39419 -2.33194,0.61914 -3.5957,0.61914c-1.06689,0 -2.09408,-0.15863 -3.06641,-0.44336zM11.39648,25.80273c0.28143,0.1288 0.56576,0.24547 0.85352,0.35547c-0.29084,-0.10684 -0.57515,-0.22507 -0.85352,-0.35547zM20.41602,25.89258c-0.22846,0.10167 -0.46264,0.19132 -0.69922,0.27734c0.23747,-0.08277 0.47047,-0.17634 0.69922,-0.27734zM12.56055,26.27148c0.11574,0.03824 0.23082,0.07645 0.34961,0.11133c-0.11781,-0.03478 -0.23354,-0.0727 -0.34961,-0.11133z"></path></g></g></svg>